<?xml version="1.0" encoding="UTF-8" standalone="no"?>
<!DOCTYPE svg PUBLIC "-//W3C//DTD SVG 1.1//EN"
 "http://www.w3.org/Graphics/SVG/1.1/DTD/svg11.dtd">
<!-- Generated by graphviz version 2.42.4 (0)
 -->
<!-- Pages: 1 -->
<svg width="256pt" height="365pt"
 viewBox="0.00 0.00 256.00 365.00" xmlns="http://www.w3.org/2000/svg" xmlns:xlink="http://www.w3.org/1999/xlink">
<g id="graph0" class="graph" transform="scale(1 1) rotate(0) translate(4 361)">
<polygon fill="white" stroke="transparent" points="-4,4 -4,-361 252,-361 252,4 -4,4"/>
<!-- 126326408506448 -->
<g id="node1" class="node">
<title>126326408506448</title>
<polygon fill="none" stroke="black" points="64,-0.5 64,-46.5 185,-46.5 185,-0.5 64,-0.5"/>
<text text-anchor="middle" x="124.5" y="-31.3" font-family="Times,serif" font-size="14.00">f data 13.0000</text>
<polyline fill="none" stroke="black" points="64,-23.5 185,-23.5 "/>
<text text-anchor="middle" x="124.5" y="-8.3" font-family="Times,serif" font-size="14.00">grad 0.0000</text>
</g>
<!-- 126326408506448+ -->
<g id="node2" class="node">
<title>126326408506448+</title>
<ellipse fill="none" stroke="black" cx="124.5" cy="-101" rx="27" ry="18"/>
<text text-anchor="middle" x="124.5" y="-97.3" font-family="Times,serif" font-size="14.00">+</text>
</g>
<!-- 126326408506448+&#45;&gt;126326408506448 -->
<g id="edge1" class="edge">
<title>126326408506448+&#45;&gt;126326408506448</title>
<path fill="none" stroke="black" d="M124.5,-82.87C124.5,-75.18 124.5,-65.83 124.5,-56.9"/>
<polygon fill="black" stroke="black" points="128,-56.73 124.5,-46.73 121,-56.73 128,-56.73"/>
</g>
<!-- 126326408509008 -->
<g id="node3" class="node">
<title>126326408509008</title>
<polygon fill="none" stroke="black" points="0,-310.5 0,-356.5 115,-356.5 115,-310.5 0,-310.5"/>
<text text-anchor="middle" x="57.5" y="-341.3" font-family="Times,serif" font-size="14.00">y data 3.0000</text>
<polyline fill="none" stroke="black" points="0,-333.5 115,-333.5 "/>
<text text-anchor="middle" x="57.5" y="-318.3" font-family="Times,serif" font-size="14.00">grad 0.0000</text>
</g>
<!-- 126326408509136**2 -->
<g id="node5" class="node">
<title>126326408509136**2</title>
<ellipse fill="none" stroke="black" cx="58.5" cy="-256" rx="27" ry="18"/>
<text text-anchor="middle" x="58.5" y="-252.3" font-family="Times,serif" font-size="14.00">**2</text>
</g>
<!-- 126326408509008&#45;&gt;126326408509136**2 -->
<g id="edge6" class="edge">
<title>126326408509008&#45;&gt;126326408509136**2</title>
<path fill="none" stroke="black" d="M57.79,-310.26C57.9,-302.18 58.02,-292.96 58.14,-284.49"/>
<polygon fill="black" stroke="black" points="61.64,-284.34 58.27,-274.3 54.64,-284.25 61.64,-284.34"/>
</g>
<!-- 126326408509136 -->
<g id="node4" class="node">
<title>126326408509136</title>
<polygon fill="none" stroke="black" points="11.5,-155.5 11.5,-201.5 115.5,-201.5 115.5,-155.5 11.5,-155.5"/>
<text text-anchor="middle" x="63.5" y="-186.3" font-family="Times,serif" font-size="14.00">data 9.0000</text>
<polyline fill="none" stroke="black" points="11.5,-178.5 115.5,-178.5 "/>
<text text-anchor="middle" x="63.5" y="-163.3" font-family="Times,serif" font-size="14.00">grad 0.0000</text>
</g>
<!-- 126326408509136&#45;&gt;126326408506448+ -->
<g id="edge7" class="edge">
<title>126326408509136&#45;&gt;126326408506448+</title>
<path fill="none" stroke="black" d="M81.47,-155.26C89.08,-145.84 97.95,-134.86 105.66,-125.32"/>
<polygon fill="black" stroke="black" points="108.5,-127.37 112.06,-117.39 103.06,-122.97 108.5,-127.37"/>
</g>
<!-- 126326408509136**2&#45;&gt;126326408509136 -->
<g id="edge2" class="edge">
<title>126326408509136**2&#45;&gt;126326408509136</title>
<path fill="none" stroke="black" d="M59.63,-237.87C60.14,-230.18 60.76,-220.83 61.35,-211.9"/>
<polygon fill="black" stroke="black" points="64.86,-211.94 62.03,-201.73 57.87,-211.47 64.86,-211.94"/>
</g>
<!-- 126326408511312 -->
<g id="node6" class="node">
<title>126326408511312</title>
<polygon fill="none" stroke="black" points="136.5,-155.5 136.5,-201.5 240.5,-201.5 240.5,-155.5 136.5,-155.5"/>
<text text-anchor="middle" x="188.5" y="-186.3" font-family="Times,serif" font-size="14.00">data 4.0000</text>
<polyline fill="none" stroke="black" points="136.5,-178.5 240.5,-178.5 "/>
<text text-anchor="middle" x="188.5" y="-163.3" font-family="Times,serif" font-size="14.00">grad 0.0000</text>
</g>
<!-- 126326408511312&#45;&gt;126326408506448+ -->
<g id="edge4" class="edge">
<title>126326408511312&#45;&gt;126326408506448+</title>
<path fill="none" stroke="black" d="M169.64,-155.26C161.46,-145.6 151.89,-134.32 143.68,-124.62"/>
<polygon fill="black" stroke="black" points="146.29,-122.29 137.15,-116.93 140.95,-126.82 146.29,-122.29"/>
</g>
<!-- 126326408511312**2 -->
<g id="node7" class="node">
<title>126326408511312**2</title>
<ellipse fill="none" stroke="black" cx="189.5" cy="-256" rx="27" ry="18"/>
<text text-anchor="middle" x="189.5" y="-252.3" font-family="Times,serif" font-size="14.00">**2</text>
</g>
<!-- 126326408511312**2&#45;&gt;126326408511312 -->
<g id="edge3" class="edge">
<title>126326408511312**2&#45;&gt;126326408511312</title>
<path fill="none" stroke="black" d="M189.27,-237.87C189.17,-230.18 189.05,-220.83 188.93,-211.9"/>
<polygon fill="black" stroke="black" points="192.43,-211.68 188.79,-201.73 185.43,-211.77 192.43,-211.68"/>
</g>
<!-- 126326408507216 -->
<g id="node8" class="node">
<title>126326408507216</title>
<polygon fill="none" stroke="black" points="133,-310.5 133,-356.5 248,-356.5 248,-310.5 133,-310.5"/>
<text text-anchor="middle" x="190.5" y="-341.3" font-family="Times,serif" font-size="14.00">x data 2.0000</text>
<polyline fill="none" stroke="black" points="133,-333.5 248,-333.5 "/>
<text text-anchor="middle" x="190.5" y="-318.3" font-family="Times,serif" font-size="14.00">grad 0.0000</text>
</g>
<!-- 126326408507216&#45;&gt;126326408511312**2 -->
<g id="edge5" class="edge">
<title>126326408507216&#45;&gt;126326408511312**2</title>
<path fill="none" stroke="black" d="M190.21,-310.26C190.1,-302.18 189.98,-292.96 189.86,-284.49"/>
<polygon fill="black" stroke="black" points="193.36,-284.25 189.73,-274.3 186.36,-284.34 193.36,-284.25"/>
</g>
</g>
</svg>
